Flux-Condensed.ufo
<glyph name="comma" format="2">
  <advance width="290"/>
  <unicode hex="002C"/>
  <outline>
    <contour>
      <point x="81" y="-115" type="curve" smooth="yes"/>
      <point x="94" y="-115" type="line" smooth="yes"/>
      <point x="123" y="-115"/>
      <point x="145" y="-93"/>
      <point x="145" y="-64" type="curve" smooth="yes"/>
      <point x="145" y="-51" type="line" smooth="yes"/>
      <point x="145" y="-22"/>
      <point x="167" y="0"/>
      <point x="196" y="0" type="curve" smooth="yes"/>
      <point x="209" y="0" type="line" smooth="yes"/>
      <point x="238" y="0"/>
      <point x="260" y="22"/>
      <point x="260" y="51" type="curve" smooth="yes"/>
      <point x="260" y="64" type="line" smooth="yes"/>
      <point x="260" y="93"/>
      <point x="238" y="115"/>
      <point x="209" y="115" type="curve" smooth="yes"/>
      <point x="197" y="115" type="line" smooth="yes"/>
      <point x="168" y="115"/>
      <point x="145" y="93"/>
      <point x="145" y="64" type="curve" smooth="yes"/>
      <point x="145" y="51" type="line" smooth="yes"/>
      <point x="145" y="22"/>
      <point x="123" y="0"/>
      <point x="94" y="0" type="curve" smooth="yes"/>
      <point x="81" y="0" type="line" smooth="yes"/>
      <point x="52" y="0"/>
      <point x="30" y="-22"/>
      <point x="30" y="-51" type="curve" smooth="yes"/>
      <point x="30" y="-64" type="line" smooth="yes"/>
      <point x="30" y="-93"/>
      <point x="52" y="-115"/>
    </contour>
  </outline>
</glyph>
<glyph name="hyphen" format="2">
  <advance width="405"/>
  <unicode hex="002D"/>
  <outline>
    <contour>
      <point x="30" y="296" type="curve" smooth="yes"/>
      <point x="30" y="283" type="line" smooth="yes"/>
      <point x="30" y="254"/>
      <point x="52" y="232"/>
      <point x="81" y="232" type="curve" smooth="yes"/>
      <point x="324" y="232" type="line" smooth="yes"/>
      <point x="353" y="232"/>
      <point x="375" y="254"/>
      <point x="375" y="283" type="curve" smooth="yes"/>
      <point x="375" y="296" type="line" smooth="yes"/>
      <point x="375" y="325"/>
      <point x="353" y="347"/>
      <point x="324" y="347" type="curve" smooth="yes"/>
      <point x="81" y="347" type="line" smooth="yes"/>
      <point x="52" y="347"/>
      <point x="30" y="325"/>
    </contour>
  </outline>
</glyph>
<glyph name="one" format="2">
  <advance width="405"/>
  <unicode hex="0031"/>
  <outline>
    <contour>
      <point x="311" y="0" type="curve" smooth="yes"/>
      <point x="324" y="0" type="line"/>
      <point x="353" y="0"/>
      <point x="375" y="22"/>
      <point x="375" y="51" type="curve" smooth="yes"/>
      <point x="375" y="524" type="line" smooth="yes"/>
      <point x="375" y="553"/>
      <point x="353" y="575"/>
      <point x="324" y="575" type="curve" smooth="yes"/>
      <point x="311" y="575" type="line" smooth="yes"/>
      <point x="282" y="575"/>
      <point x="260" y="597"/>
      <point x="260" y="626" type="curve" smooth="yes"/>
      <point x="260" y="639" type="line" smooth="yes"/>
      <point x="260" y="668"/>
      <point x="238" y="690"/>
      <point x="209" y="690" type="curve" smooth="yes"/>
      <point x="81" y="690" type="line" smooth="yes"/>
      <point x="52" y="690"/>
      <point x="30" y="668"/>
      <point x="30" y="639" type="curve" smooth="yes"/>
      <point x="30" y="626" type="line" smooth="yes"/>
      <point x="30" y="597"/>
      <point x="52" y="575"/>
      <point x="81" y="575" type="curve" smooth="yes"/>
      <point x="209" y="575" type="line" smooth="yes"/>
      <point x="238" y="575"/>
      <point x="260" y="553"/>
      <point x="260" y="524" type="curve" smooth="yes"/>
      <point x="260" y="51" type="line" smooth="yes"/>
      <point x="260" y="22"/>
      <point x="282" y="0"/>
    </contour>
  </outline>
</glyph>
<glyph name="four" format="2">
  <advance width="520"/>
  <unicode hex="0034"/>
  <outline>
    <contour>
      <point x="490" y="639" type="curve" smooth="yes"/>
      <point x="490" y="51" type="line"/>
      <point x="490" y="22"/>
      <point x="468" y="0"/>
      <point x="439" y="0" type="curve" smooth="yes"/>
      <point x="426" y="0" type="line" smooth="yes"/>
      <point x="397" y="0"/>
      <point x="375" y="22"/>
      <point x="375" y="51" type="curve" smooth="yes"/>
      <point x="375" y="178" type="line" smooth="yes"/>
      <point x="375" y="207"/>
      <point x="353" y="228"/>
      <point x="324" y="228" type="curve" smooth="yes"/>
      <point x="196" y="228" type="line" smooth="yes"/>
      <point x="167" y="228"/>
      <point x="145" y="251"/>
      <point x="145" y="280" type="curve" smooth="yes"/>
      <point x="145" y="292" type="line" smooth="yes"/>
      <point x="145" y="321"/>
      <point x="123" y="345"/>
      <point x="94" y="345" type="curve" smooth="yes"/>
      <point x="81" y="345" type="line" smooth="yes"/>
      <point x="52" y="345"/>
      <point x="30" y="365"/>
      <point x="30" y="394" type="curve" smooth="yes"/>
      <point x="30" y="639" type="line" smooth="yes"/>
      <point x="30" y="668"/>
      <point x="52" y="690"/>
      <point x="81" y="690" type="curve" smooth="yes"/>
      <point x="94" y="690" type="line" smooth="yes"/>
      <point x="123" y="690"/>
      <point x="145" y="668"/>
      <point x="145" y="639" type="curve" smooth="yes"/>
      <point x="145" y="394" type="line" smooth="yes"/>
      <point x="145" y="365"/>
      <point x="167" y="343"/>
      <point x="196" y="343" type="curve" smooth="yes"/>
      <point x="324" y="343" type="line" smooth="yes"/>
      <point x="353" y="343"/>
      <point x="375" y="366"/>
      <point x="375" y="395" type="curve" smooth="yes"/>
      <point x="375" y="639" type="line" smooth="yes"/>
      <point x="375" y="668"/>
      <point x="397" y="690"/>
      <point x="426" y="690" type="curve" smooth="yes"/>
      <point x="439" y="690" type="line" smooth="yes"/>
      <point x="468" y="690"/>
      <point x="490" y="668"/>
    </contour>
  </outline>
</glyph>
<glyph name="six" format="2">
  <advance width="520"/>
  <unicode hex="0036"/>
  <outline>
    <contour>
      <point x="30" y="524" type="curve"/>
      <point x="30" y="166" type="line"/>
      <point x="30" y="137"/>
      <point x="52" y="115"/>
      <point x="81" y="115" type="curve" smooth="yes"/>
      <point x="94" y="115" type="line" smooth="yes"/>
      <point x="123" y="115"/>
      <point x="145" y="93"/>
      <point x="145" y="64" type="curve" smooth="yes"/>
      <point x="145" y="51" type="line" smooth="yes"/>
      <point x="145" y="22"/>
      <point x="167" y="0"/>
      <point x="196" y="0" type="curve" smooth="yes"/>
      <point x="324" y="0" type="line" smooth="yes"/>
      <point x="353" y="0"/>
      <point x="375" y="22"/>
      <point x="375" y="51" type="curve" smooth="yes"/>
      <point x="375" y="64" type="line" smooth="yes"/>
      <point x="375" y="93"/>
      <point x="397" y="115"/>
      <point x="426" y="115" type="curve" smooth="yes"/>
      <point x="439" y="115" type="line" smooth="yes"/>
      <point x="468" y="115"/>
      <point x="490" y="137"/>
      <point x="490" y="166" type="curve" smooth="yes"/>
      <point x="490" y="294" type="line" smooth="yes"/>
      <point x="490" y="323"/>
      <point x="468" y="345"/>
      <point x="439" y="345" type="curve" smooth="yes"/>
      <point x="426" y="345" type="line" smooth="yes"/>
      <point x="397" y="345"/>
      <point x="375" y="367"/>
      <point x="375" y="396" type="curve" smooth="yes"/>
      <point x="375" y="409" type="line" smooth="yes"/>
      <point x="375" y="438"/>
      <point x="353" y="460"/>
      <point x="324" y="460" type="curve" smooth="yes"/>
      <point x="196" y="460" type="line" smooth="yes"/>
      <point x="167" y="460"/>
      <point x="145" y="482"/>
      <point x="145" y="511" type="curve" smooth="yes"/>
      <point x="145" y="524" type="line" smooth="yes"/>
      <point x="145" y="553"/>
      <point x="167" y="575"/>
      <point x="196" y="575" type="curve" smooth="yes"/>
      <point x="434" y="575" type="line" smooth="yes"/>
      <point x="463" y="575"/>
      <point x="485" y="597"/>
      <point x="485" y="626" type="curve" smooth="yes"/>
      <point x="485" y="639" type="line" smooth="yes"/>
      <point x="485" y="668"/>
      <point x="463" y="690"/>
      <point x="434" y="690" type="curve" smooth="yes"/>
      <point x="196" y="690" type="line" smooth="yes"/>
      <point x="167" y="690"/>
      <point x="145" y="668"/>
      <point x="145" y="639" type="curve" smooth="yes"/>
      <point x="145" y="626" type="line" smooth="yes"/>
      <point x="145" y="597"/>
      <point x="123" y="575"/>
      <point x="94" y="575" type="curve" smooth="yes"/>
      <point x="81" y="575" type="line" smooth="yes"/>
      <point x="52" y="575"/>
      <point x="30" y="553"/>
    </contour>
    <contour>
      <point x="145" y="166" type="curve" smooth="yes"/>
      <point x="145" y="294" type="line" smooth="yes"/>
      <point x="145" y="323"/>
      <point x="167" y="345"/>
      <point x="196" y="345" type="curve" smooth="yes"/>
      <point x="324" y="345" type="line" smooth="yes"/>
      <point x="353" y="345"/>
      <point x="375" y="323"/>
      <point x="375" y="294" type="curve" smooth="yes"/>
      <point x="375" y="166" type="line" smooth="yes"/>
      <point x="375" y="137"/>
      <point x="353" y="115"/>
      <point x="324" y="115" type="curve" smooth="yes"/>
      <point x="196" y="115" type="line" smooth="yes"/>
      <point x="167" y="115"/>
      <point x="145" y="137"/>
    </contour>
  </outline>
</glyph>
<glyph name="seven" format="2">
  <advance width="520"/>
  <unicode hex="0037"/>
  <outline>
    <contour>
      <point x="81" y="0" type="curve" smooth="yes"/>
      <point x="94" y="0" type="line" smooth="yes"/>
      <point x="123" y="0"/>
      <point x="145" y="22"/>
      <point x="145" y="51" type="curve" smooth="yes"/>
      <point x="145" y="179" type="line" smooth="yes"/>
      <point x="145" y="208"/>
      <point x="167" y="230"/>
      <point x="196" y="230" type="curve" smooth="yes"/>
      <point x="209" y="230" type="line" smooth="yes"/>
      <point x="238" y="230"/>
      <point x="260" y="252"/>
      <point x="260" y="281" type="curve" smooth="yes"/>
      <point x="260" y="294" type="line" smooth="yes"/>
      <point x="260" y="323"/>
      <point x="282" y="345"/>
      <point x="311" y="345" type="curve" smooth="yes"/>
      <point x="324" y="345" type="line" smooth="yes"/>
      <point x="353" y="345"/>
      <point x="375" y="367"/>
      <point x="375" y="396" type="curve" smooth="yes"/>
      <point x="375" y="409" type="line" smooth="yes"/>
      <point x="375" y="438"/>
      <point x="397" y="460"/>
      <point x="426" y="460" type="curve" smooth="yes"/>
      <point x="439" y="460" type="line" smooth="yes"/>
      <point x="468" y="460"/>
      <point x="490" y="482"/>
      <point x="490" y="511" type="curve" smooth="yes"/>
      <point x="490" y="639" type="line" smooth="yes"/>
      <point x="490" y="668"/>
      <point x="468" y="690"/>
      <point x="439" y="690" type="curve" smooth="yes"/>
      <point x="95" y="690" type="line" smooth="yes"/>
      <point x="66" y="690"/>
      <point x="44" y="668"/>
      <point x="44" y="639" type="curve" smooth="yes"/>
      <point x="44" y="626" type="line" smooth="yes"/>
      <point x="44" y="597"/>
      <point x="66" y="575"/>
      <point x="95" y="575" type="curve" smooth="yes"/>
      <point x="324" y="575" type="line" smooth="yes"/>
      <point x="353" y="575"/>
      <point x="375" y="553"/>
      <point x="375" y="524" type="curve" smooth="yes"/>
      <point x="375" y="511" type="line" smooth="yes"/>
      <point x="375" y="482"/>
      <point x="353" y="460"/>
      <point x="324" y="460" type="curve" smooth="yes"/>
      <point x="311" y="460" type="line" smooth="yes"/>
      <point x="282" y="460"/>
      <point x="260" y="438"/>
      <point x="260" y="409" type="curve" smooth="yes"/>
      <point x="260" y="396" type="line" smooth="yes"/>
      <point x="260" y="367"/>
      <point x="238" y="345"/>
      <point x="209" y="345" type="curve" smooth="yes"/>
      <point x="196" y="345" type="line" smooth="yes"/>
      <point x="167" y="345"/>
      <point x="145" y="323"/>
      <point x="145" y="294" type="curve" smooth="yes"/>
      <point x="145" y="281" type="line" smooth="yes"/>
      <point x="145" y="252"/>
      <point x="123" y="230"/>
      <point x="94" y="230" type="curve" smooth="yes"/>
      <point x="81" y="230" type="line" smooth="yes"/>
      <point x="52" y="230"/>
      <point x="30" y="207"/>
      <point x="30" y="178" type="curve" smooth="yes"/>
      <point x="30" y="51" type="line" smooth="yes"/>
      <point x="30" y="22"/>
      <point x="52" y="0"/>
    </contour>
  </outline>
</glyph>
<glyph name="nine" format="2">
  <advance width="520"/>
  <unicode hex="0039"/>
  <outline>
    <contour>
      <point x="490" y="396" type="curve" smooth="yes"/>
      <point x="490" y="639" type="line" smooth="yes"/>
      <point x="490" y="668"/>
      <point x="468" y="690"/>
      <point x="439" y="690" type="curve" smooth="yes"/>
      <point x="196" y="690" type="line" smooth="yes"/>
      <point x="167" y="690"/>
      <point x="145" y="668"/>
      <point x="145" y="639" type="curve" smooth="yes"/>
      <point x="145" y="626" type="line" smooth="yes"/>
      <point x="145" y="597"/>
      <point x="123" y="575"/>
      <point x="94" y="575" type="curve" smooth="yes"/>
      <point x="81" y="575" type="line" smooth="yes"/>
      <point x="52" y="575"/>
      <point x="30" y="553"/>
      <point x="30" y="524" type="curve" smooth="yes"/>
      <point x="30" y="396" type="line" smooth="yes"/>
      <point x="30" y="367"/>
      <point x="52" y="345"/>
      <point x="81" y="345" type="curve" smooth="yes"/>
      <point x="94" y="345" type="line" smooth="yes"/>
      <point x="123" y="345"/>
      <point x="145" y="323"/>
      <point x="145" y="294" type="curve" smooth="yes"/>
      <point x="145" y="281" type="line" smooth="yes"/>
      <point x="145" y="252"/>
      <point x="167" y="230"/>
      <point x="196" y="230" type="curve" smooth="yes"/>
      <point x="324" y="230" type="line" smooth="yes"/>
      <point x="353" y="230"/>
      <point x="375" y="208"/>
      <point x="375" y="179" type="curve" smooth="yes"/>
      <point x="375" y="166" type="line" smooth="yes"/>
      <point x="375" y="137"/>
      <point x="353" y="115"/>
      <point x="324" y="115" type="curve" smooth="yes"/>
      <point x="85" y="115" type="line" smooth="yes"/>
      <point x="56" y="115"/>
      <point x="34" y="93"/>
      <point x="34" y="64" type="curve" smooth="yes"/>
      <point x="34" y="51" type="line" smooth="yes"/>
      <point x="34" y="22"/>
      <point x="56" y="0"/>
      <point x="85" y="0" type="curve" smooth="yes"/>
      <point x="324" y="0" type="line" smooth="yes"/>
      <point x="353" y="0"/>
      <point x="375" y="22"/>
      <point x="375" y="51" type="curve" smooth="yes"/>
      <point x="375" y="64" type="line" smooth="yes"/>
      <point x="375" y="93"/>
      <point x="397" y="115"/>
      <point x="426" y="115" type="curve" smooth="yes"/>
      <point x="439" y="115" type="line" smooth="yes"/>
      <point x="468" y="115"/>
      <point x="490" y="137"/>
      <point x="490" y="166" type="curve" smooth="yes"/>
      <point x="490" y="179" type="line" smooth="yes"/>
      <point x="490" y="208"/>
      <point x="490" y="367"/>
    </contour>
    <contour>
      <point x="375" y="524" type="curve" smooth="yes"/>
      <point x="375" y="396" type="line" smooth="yes"/>
      <point x="375" y="367"/>
      <point x="353" y="345"/>
      <point x="324" y="345" type="curve" smooth="yes"/>
      <point x="196" y="345" type="line" smooth="yes"/>
      <point x="167" y="345"/>
      <point x="145" y="367"/>
      <point x="145" y="396" type="curve" smooth="yes"/>
      <point x="145" y="524" type="line" smooth="yes"/>
      <point x="145" y="553"/>
      <point x="167" y="575"/>
      <point x="196" y="575" type="curve" smooth="yes"/>
      <point x="324" y="575" type="line" smooth="yes"/>
      <point x="353" y="575"/>
      <point x="375" y="553"/>
    </contour>
  </outline>
</glyph>
<glyph name="at" format="2">
  <advance width="634"/>
  <unicode hex="0040"/>
  <outline>
    <contour>
      <point x="541" y="575" type="curve" smooth="yes"/>
      <point x="554" y="575" type="line" smooth="yes"/>
      <point x="583" y="575"/>
      <point x="604" y="597"/>
      <point x="604" y="626" type="curve" smooth="yes"/>
      <point x="604" y="639" type="line" smooth="yes"/>
      <point x="604" y="668"/>
      <point x="582" y="690"/>
      <point x="553" y="690" type="curve" smooth="yes"/>
      <point x="540" y="690" type="line" smooth="yes"/>
      <point x="511" y="690"/>
      <point x="489" y="712"/>
      <point x="489" y="741" type="curve" smooth="yes"/>
      <point x="489" y="754" type="line" smooth="yes"/>
      <point x="489" y="783"/>
      <point x="467" y="805"/>
      <point x="438" y="805" type="curve" smooth="yes"/>
      <point x="310" y="805" type="line" smooth="yes"/>
      <point x="281" y="805"/>
      <point x="259" y="783"/>
      <point x="259" y="754" type="curve" smooth="yes"/>
      <point x="259" y="741" type="line" smooth="yes"/>
      <point x="259" y="712"/>
      <point x="237" y="690"/>
      <point x="208" y="690" type="curve" smooth="yes"/>
      <point x="81" y="690" type="line" smooth="yes"/>
      <point x="52" y="690"/>
      <point x="30" y="668"/>
      <point x="30" y="639" type="curve" smooth="yes"/>
      <point x="30" y="165" type="line" smooth="yes"/>
      <point x="30" y="136"/>
      <point x="52" y="114"/>
      <point x="81" y="114" type="curve" smooth="yes"/>
      <point x="94" y="114" type="line" smooth="yes"/>
      <point x="126" y="114"/>
      <point x="145" y="92"/>
      <point x="145" y="64" type="curve" smooth="yes"/>
      <point x="145" y="51" type="line" smooth="yes"/>
      <point x="145" y="22"/>
      <point x="168" y="0"/>
      <point x="197" y="0" type="curve" smooth="yes"/>
      <point x="439" y="0" type="line" smooth="yes"/>
      <point x="468" y="0"/>
      <point x="490" y="22"/>
      <point x="490" y="51" type="curve" smooth="yes"/>
      <point x="490" y="64" type="line" smooth="yes"/>
      <point x="490" y="96"/>
      <point x="512" y="115"/>
      <point x="540" y="115" type="curve" smooth="yes"/>
      <point x="553" y="115" type="line" smooth="yes"/>
      <point x="582" y="115"/>
      <point x="604" y="138"/>
      <point x="604" y="167" type="curve" smooth="yes"/>
      <point x="604" y="179" type="line" smooth="yes"/>
      <point x="604" y="208"/>
      <point x="582" y="230"/>
      <point x="553" y="230" type="curve" smooth="yes"/>
      <point x="540" y="230" type="line" smooth="yes"/>
      <point x="511" y="230"/>
      <point x="489" y="208"/>
      <point x="489" y="179" type="curve" smooth="yes"/>
      <point x="489" y="166" type="line" smooth="yes"/>
      <point x="489" y="136"/>
      <point x="467" y="115"/>
      <point x="438" y="115" type="curve" smooth="yes"/>
      <point x="196" y="115" type="line" smooth="yes"/>
      <point x="167" y="115"/>
      <point x="145" y="137"/>
      <point x="145" y="166" type="curve" smooth="yes"/>
      <point x="145" y="524" type="line" smooth="yes"/>
      <point x="145" y="553"/>
      <point x="167" y="575"/>
      <point x="196" y="575" type="curve" smooth="yes"/>
      <point x="209" y="575" type="line" smooth="yes"/>
      <point x="238" y="575"/>
      <point x="259" y="597"/>
      <point x="259" y="626" type="curve" smooth="yes"/>
      <point x="259" y="639" type="line" smooth="yes"/>
      <point x="259" y="674"/>
      <point x="281" y="690"/>
      <point x="310" y="690" type="curve" smooth="yes"/>
      <point x="438" y="690" type="line" smooth="yes"/>
      <point x="467" y="690"/>
      <point x="489" y="668"/>
      <point x="489" y="639" type="curve" smooth="yes"/>
      <point x="489" y="626" type="line" smooth="yes"/>
      <point x="489" y="597"/>
      <point x="467" y="575"/>
      <point x="438" y="575" type="curve" smooth="yes"/>
      <point x="311" y="575" type="line" smooth="yes"/>
      <point x="282" y="575"/>
      <point x="260" y="553"/>
      <point x="260" y="524" type="curve" smooth="yes"/>
      <point x="260" y="281" type="line" smooth="yes"/>
      <point x="260" y="252"/>
      <point x="282" y="230"/>
      <point x="311" y="230" type="curve" smooth="yes"/>
      <point x="439" y="230" type="line" smooth="yes"/>
      <point x="468" y="230"/>
      <point x="490" y="252"/>
      <point x="490" y="281" type="curve" smooth="yes"/>
      <point x="490" y="294" type="line" smooth="yes"/>
      <point x="490" y="323"/>
      <point x="512" y="345"/>
      <point x="541" y="345" type="curve" smooth="yes"/>
      <point x="554" y="345" type="line" smooth="yes"/>
      <point x="583" y="345"/>
      <point x="604" y="367"/>
      <point x="604" y="396" type="curve" smooth="yes"/>
      <point x="604" y="409" type="line" smooth="yes"/>
      <point x="604" y="438"/>
      <point x="583" y="460"/>
      <point x="554" y="460" type="curve" smooth="yes"/>
      <point x="541" y="460" type="line" smooth="yes"/>
      <point x="512" y="460"/>
      <point x="490" y="482"/>
      <point x="490" y="511" type="curve" smooth="yes"/>
      <point x="490" y="524" type="line" smooth="yes"/>
      <point x="490" y="553"/>
      <point x="512" y="575"/>
    </contour>
    <contour>
      <point x="489" y="409" type="curve" smooth="yes"/>
      <point x="489" y="396" type="line"/>
      <point x="489" y="367"/>
      <point x="468" y="345"/>
      <point x="439" y="345" type="curve" smooth="yes"/>
      <point x="426" y="345" type="line" smooth="yes"/>
      <point x="397" y="345"/>
      <point x="375" y="367"/>
      <point x="375" y="396" type="curve" smooth="yes"/>
      <point x="375" y="409" type="line" smooth="yes"/>
      <point x="375" y="438"/>
      <point x="397" y="460"/>
      <point x="426" y="460" type="curve" smooth="yes"/>
      <point x="439" y="460" type="line" smooth="yes"/>
      <point x="468" y="460"/>
      <point x="489" y="438"/>
    </contour>
  </outline>
</glyph>
<glyph name="D" format="2">
  <advance width="520"/>
  <unicode hex="0044"/>
  <outline>
    <contour>
      <point x="490" y="524" type="curve" smooth="yes"/>
      <point x="490" y="166" type="line" smooth="yes"/>
      <point x="490" y="137"/>
      <point x="468" y="115"/>
      <point x="439" y="115" type="curve" smooth="yes"/>
      <point x="426" y="115" type="line" smooth="yes"/>
      <point x="397" y="115"/>
      <point x="375" y="93"/>
      <point x="375" y="64" type="curve" smooth="yes"/>
      <point x="375" y="51" type="line" smooth="yes"/>
      <point x="375" y="22"/>
      <point x="353" y="0"/>
      <point x="324" y="0" type="curve" smooth="yes"/>
      <point x="81" y="0" type="line" smooth="yes"/>
      <point x="52" y="0"/>
      <point x="30" y="22"/>
      <point x="30" y="51" type="curve" smooth="yes"/>
      <point x="30" y="639" type="line" smooth="yes"/>
      <point x="30" y="668"/>
      <point x="52" y="690"/>
      <point x="81" y="690" type="curve" smooth="yes"/>
      <point x="324" y="690" type="line" smooth="yes"/>
      <point x="353" y="690"/>
      <point x="375" y="668"/>
      <point x="375" y="639" type="curve" smooth="yes"/>
      <point x="375" y="626" type="line" smooth="yes"/>
      <point x="375" y="597"/>
      <point x="397" y="575"/>
      <point x="426" y="575" type="curve" smooth="yes"/>
      <point x="439" y="575" type="line" smooth="yes"/>
      <point x="468" y="575"/>
      <point x="490" y="553"/>
    </contour>
    <contour>
      <point x="375" y="166" type="curve" smooth="yes"/>
      <point x="375" y="524" type="line" smooth="yes"/>
      <point x="375" y="553"/>
      <point x="353" y="575"/>
      <point x="324" y="575" type="curve" smooth="yes"/>
      <point x="196" y="575" type="line" smooth="yes"/>
      <point x="167" y="575"/>
      <point x="145" y="553"/>
      <point x="145" y="524" type="curve" smooth="yes"/>
      <point x="145" y="166" type="line" smooth="yes"/>
      <point x="145" y="137"/>
      <point x="167" y="115"/>
      <point x="196" y="115" type="curve" smooth="yes"/>
      <point x="324" y="115" type="line" smooth="yes"/>
      <point x="353" y="115"/>
      <point x="375" y="137"/>
    </contour>
  </outline>
</glyph>
<glyph name="M" format="2">
  <advance width="635"/>
  <unicode hex="004D"/>
  <outline>
    <contour>
      <point x="30" y="51" type="curve" smooth="yes"/>
      <point x="30" y="524" type="line" smooth="yes"/>
      <point x="30" y="553"/>
      <point x="51" y="575"/>
      <point x="80" y="575" type="curve" smooth="yes"/>
      <point x="95" y="575" type="line" smooth="yes"/>
      <point x="124" y="575"/>
      <point x="145" y="597"/>
      <point x="145" y="626" type="curve" smooth="yes"/>
      <point x="145" y="639" type="line" smooth="yes"/>
      <point x="145" y="668"/>
      <point x="166" y="690"/>
      <point x="195" y="690" type="curve" smooth="yes"/>
      <point x="210" y="690" type="line" smooth="yes"/>
      <point x="239" y="690"/>
      <point x="260" y="668"/>
      <point x="260" y="639" type="curve" smooth="yes"/>
      <point x="260" y="626" type="line" smooth="yes"/>
      <point x="260" y="597"/>
      <point x="281" y="575"/>
      <point x="310" y="575" type="curve" smooth="yes"/>
      <point x="325" y="575" type="line" smooth="yes"/>
      <point x="354" y="575"/>
      <point x="375" y="597"/>
      <point x="375" y="626" type="curve" smooth="yes"/>
      <point x="375" y="639" type="line" smooth="yes"/>
      <point x="375" y="668"/>
      <point x="396" y="690"/>
      <point x="425" y="690" type="curve" smooth="yes"/>
      <point x="440" y="690" type="line" smooth="yes"/>
      <point x="469" y="690"/>
      <point x="490" y="668"/>
      <point x="490" y="639" type="curve" smooth="yes"/>
      <point x="490" y="626" type="line" smooth="yes"/>
      <point x="490" y="597"/>
      <point x="511" y="575"/>
      <point x="540" y="575" type="curve" smooth="yes"/>
      <point x="555" y="575" type="line" smooth="yes"/>
      <point x="584" y="575"/>
      <point x="605" y="553"/>
      <point x="605" y="524" type="curve" smooth="yes"/>
      <point x="605" y="51" type="line" smooth="yes"/>
      <point x="605" y="22"/>
      <point x="584" y="0"/>
      <point x="555" y="0" type="curve" smooth="yes"/>
      <point x="540" y="0" type="line" smooth="yes"/>
      <point x="511" y="0"/>
      <point x="490" y="22"/>
      <point x="490" y="51" type="curve" smooth="yes"/>
      <point x="490" y="524" type="line" smooth="yes"/>
      <point x="490" y="553"/>
      <point x="469" y="575"/>
      <point x="440" y="575" type="curve" smooth="yes"/>
      <point x="425" y="575" type="line" smooth="yes"/>
      <point x="396" y="575"/>
      <point x="375" y="553"/>
      <point x="375" y="524" type="curve" smooth="yes"/>
      <point x="375" y="51" type="line" smooth="yes"/>
      <point x="375" y="22"/>
      <point x="354" y="0"/>
      <point x="325" y="0" type="curve" smooth="yes"/>
      <point x="310" y="0" type="line" smooth="yes"/>
      <point x="281" y="0"/>
      <point x="260" y="22"/>
      <point x="260" y="51" type="curve" smooth="yes"/>
      <point x="260" y="524" type="line" smooth="yes"/>
      <point x="260" y="553"/>
      <point x="239" y="575"/>
      <point x="210" y="575" type="curve" smooth="yes"/>
      <point x="195" y="575" type="line" smooth="yes"/>
      <point x="166" y="575"/>
      <point x="145" y="553"/>
      <point x="145" y="524" type="curve" smooth="yes"/>
      <point x="145" y="51" type="line" smooth="yes"/>
      <point x="145" y="22"/>
      <point x="124" y="0"/>
      <point x="95" y="0" type="curve" smooth="yes"/>
      <point x="80" y="0" type="line" smooth="yes"/>
      <point x="51" y="0"/>
      <point x="30" y="22"/>
    </contour>
  </outline>
</glyph>
<glyph name="R" format="2">
  <advance width="520"/>
  <unicode hex="0052"/>
  <outline>
    <contour>
      <point x="30" y="51" type="curve" smooth="yes"/>
      <point x="30" y="179" type="line" smooth="yes"/>
      <point x="30" y="208"/>
      <point x="52" y="230"/>
      <point x="81" y="230" type="curve" smooth="yes"/>
      <point x="94" y="230" type="line" smooth="yes"/>
      <point x="123" y="230"/>
      <point x="145" y="252"/>
      <point x="145" y="281" type="curve" smooth="yes"/>
      <point x="145" y="294" type="line" smooth="yes"/>
      <point x="145" y="323"/>
      <point x="124" y="345"/>
      <point x="95" y="345" type="curve" smooth="yes"/>
      <point x="80" y="345" type="line" smooth="yes"/>
      <point x="51" y="345"/>
      <point x="30" y="367"/>
      <point x="30" y="396" type="curve" smooth="yes"/>
      <point x="30" y="639" type="line" smooth="yes"/>
      <point x="30" y="668"/>
      <point x="52" y="690"/>
      <point x="81" y="690" type="curve" smooth="yes"/>
      <point x="324" y="690" type="line" smooth="yes"/>
      <point x="353" y="690"/>
      <point x="375" y="668"/>
      <point x="375" y="639" type="curve" smooth="yes"/>
      <point x="375" y="626" type="line" smooth="yes"/>
      <point x="375" y="597"/>
      <point x="397" y="575"/>
      <point x="426" y="575" type="curve" smooth="yes"/>
      <point x="439" y="575" type="line" smooth="yes"/>
      <point x="468" y="575"/>
      <point x="490" y="553"/>
      <point x="490" y="524" type="curve" smooth="yes"/>
      <point x="490" y="396" type="line" smooth="yes"/>
      <point x="490" y="367"/>
      <point x="468" y="345"/>
      <point x="439" y="345" type="curve" smooth="yes"/>
      <point x="426" y="345" type="line" smooth="yes"/>
      <point x="397" y="345"/>
      <point x="375" y="323"/>
      <point x="375" y="294" type="curve" smooth="yes"/>
      <point x="375" y="281" type="line" smooth="yes"/>
      <point x="375" y="252"/>
      <point x="397" y="230"/>
      <point x="426" y="230" type="curve" smooth="yes"/>
      <point x="439" y="230" type="line" smooth="yes"/>
      <point x="468" y="230"/>
      <point x="490" y="208"/>
      <point x="490" y="179" type="curve" smooth="yes"/>
      <point x="490" y="51" type="line" smooth="yes"/>
      <point x="490" y="22"/>
      <point x="468" y="0"/>
      <point x="439" y="0" type="curve" smooth="yes"/>
      <point x="426" y="0" type="line" smooth="yes"/>
      <point x="397" y="0"/>
      <point x="375" y="22"/>
      <point x="375" y="51" type="curve" smooth="yes"/>
      <point x="375" y="179" type="line" smooth="yes"/>
      <point x="375" y="208"/>
      <point x="353" y="230"/>
      <point x="324" y="230" type="curve" smooth="yes"/>
      <point x="196" y="230" type="line" smooth="yes"/>
      <point x="167" y="230"/>
      <point x="145" y="208"/>
      <point x="145" y="179" type="curve" smooth="yes"/>
      <point x="145" y="51" type="line" smooth="yes"/>
      <point x="145" y="22"/>
      <point x="123" y="0"/>
      <point x="94" y="0" type="curve" smooth="yes"/>
      <point x="81" y="0" type="line" smooth="yes"/>
      <point x="52" y="0"/>
      <point x="30" y="22"/>
    </contour>
    <contour>
      <point x="145" y="524" type="curve" smooth="yes"/>
      <point x="145" y="396" type="line"/>
      <point x="145" y="367"/>
      <point x="167" y="345"/>
      <point x="196" y="345" type="curve" smooth="yes"/>
      <point x="324" y="345" type="line" smooth="yes"/>
      <point x="353" y="345"/>
      <point x="375" y="367"/>
      <point x="375" y="396" type="curve" smooth="yes"/>
      <point x="375" y="524" type="line" smooth="yes"/>
      <point x="375" y="553"/>
      <point x="353" y="575"/>
      <point x="324" y="575" type="curve" smooth="yes"/>
      <point x="196" y="575" type="line" smooth="yes"/>
      <point x="167" y="575"/>
      <point x="145" y="553"/>
    </contour>
  </outline>
</glyph>
<glyph name="T" format="2">
  <advance width="520"/>
  <unicode hex="0054"/>
  <outline>
    <contour>
      <point x="254" y="0" type="curve" smooth="yes"/>
      <point x="267" y="0" type="line" smooth="yes"/>
      <point x="296" y="0"/>
      <point x="318" y="22"/>
      <point x="318" y="51" type="curve" smooth="yes"/>
      <point x="318" y="524" type="line" smooth="yes"/>
      <point x="318" y="553"/>
      <point x="340" y="575"/>
      <point x="369" y="575" type="curve" smooth="yes"/>
      <point x="440" y="575" type="line" smooth="yes"/>
      <point x="468" y="575"/>
      <point x="490" y="597"/>
      <point x="490" y="626" type="curve" smooth="yes"/>
      <point x="490" y="639" type="line" smooth="yes"/>
      <point x="490" y="668"/>
      <point x="468" y="690"/>
      <point x="440" y="690" type="curve" smooth="yes"/>
      <point x="80" y="690" type="line" smooth="yes"/>
      <point x="52" y="690"/>
      <point x="30" y="668"/>
      <point x="30" y="639" type="curve" smooth="yes"/>
      <point x="30" y="626" type="line" smooth="yes"/>
      <point x="30" y="597"/>
      <point x="52" y="575"/>
      <point x="79" y="575" type="curve" smooth="yes"/>
      <point x="152" y="575" type="line" smooth="yes"/>
      <point x="181" y="575"/>
      <point x="203" y="553"/>
      <point x="203" y="524" type="curve" smooth="yes"/>
      <point x="203" y="51" type="line" smooth="yes"/>
      <point x="203" y="22"/>
      <point x="225" y="0"/>
    </contour>
  </outline>
</glyph>
<glyph name="V" format="2">
  <advance width="520"/>
  <unicode hex="0056"/>
  <outline>
    <contour>
      <point x="30" y="280" type="curve" smooth="yes"/>
      <point x="30" y="639" type="line"/>
      <point x="30" y="668"/>
      <point x="52" y="690"/>
      <point x="81" y="690" type="curve" smooth="yes"/>
      <point x="94" y="690" type="line" smooth="yes"/>
      <point x="123" y="690"/>
      <point x="145" y="668"/>
      <point x="145" y="639" type="curve" smooth="yes"/>
      <point x="145" y="281" type="line" smooth="yes"/>
      <point x="145" y="252"/>
      <point x="167" y="230"/>
      <point x="196" y="230" type="curve" smooth="yes"/>
      <point x="209" y="230" type="line" smooth="yes"/>
      <point x="238" y="230"/>
      <point x="260" y="208"/>
      <point x="260" y="179" type="curve" smooth="yes"/>
      <point x="260" y="166" type="line" smooth="yes"/>
      <point x="260" y="137"/>
      <point x="282" y="115"/>
      <point x="311" y="115" type="curve" smooth="yes"/>
      <point x="324" y="115" type="line" smooth="yes"/>
      <point x="353" y="115"/>
      <point x="375" y="137"/>
      <point x="375" y="166" type="curve" smooth="yes"/>
      <point x="375" y="639" type="line" smooth="yes"/>
      <point x="375" y="668"/>
      <point x="397" y="690"/>
      <point x="426" y="690" type="curve" smooth="yes"/>
      <point x="439" y="690" type="line" smooth="yes"/>
      <point x="468" y="690"/>
      <point x="490" y="668"/>
      <point x="490" y="639" type="curve" smooth="yes"/>
      <point x="490" y="166" type="line" smooth="yes"/>
      <point x="490" y="137"/>
      <point x="468" y="115"/>
      <point x="439" y="115" type="curve" smooth="yes"/>
      <point x="426" y="115" type="line" smooth="yes"/>
      <point x="397" y="115"/>
      <point x="375" y="93"/>
      <point x="375" y="64" type="curve" smooth="yes"/>
      <point x="375" y="51" type="line" smooth="yes"/>
      <point x="375" y="22"/>
      <point x="353" y="0"/>
      <point x="324" y="0" type="curve" smooth="yes"/>
      <point x="311" y="0" type="line" smooth="yes"/>
      <point x="282" y="0"/>
      <point x="260" y="22"/>
      <point x="260" y="51" type="curve" smooth="yes"/>
      <point x="260" y="64" type="line" smooth="yes"/>
      <point x="260" y="93"/>
      <point x="238" y="115"/>
      <point x="209" y="115" type="curve" smooth="yes"/>
      <point x="196" y="115" type="line" smooth="yes"/>
      <point x="167" y="115"/>
      <point x="145" y="137"/>
      <point x="145" y="166" type="curve" smooth="yes"/>
      <point x="145" y="177" type="line" smooth="yes"/>
      <point x="145" y="207"/>
      <point x="123" y="228"/>
      <point x="93" y="228" type="curve" smooth="yes"/>
      <point x="82" y="228" type="line" smooth="yes"/>
      <point x="53" y="228"/>
      <point x="30" y="251"/>
    </contour>
  </outline>
</glyph>
<glyph name="a" format="2">
  <advance width="405"/>
  <unicode hex="0061"/>
  <outline>
    <contour>
      <point x="192" y="0" type="curve"/>
      <point x="329" y="0" type="line"/>
      <point x="354" y="0"/>
      <point x="375" y="21"/>
      <point x="375" y="46" type="curve"/>
      <point x="375" y="184" type="line"/>
      <point x="375" y="210"/>
      <point x="354" y="230"/>
      <point x="329" y="230" type="curve"/>
      <point x="306" y="230" type="line"/>
      <point x="281" y="230"/>
      <point x="260" y="251"/>
      <point x="260" y="276" type="curve"/>
      <point x="260" y="299" type="line"/>
      <point x="260" y="324"/>
      <point x="281" y="344"/>
      <point x="306" y="344" type="curve"/>
      <point x="329" y="344" type="line"/>
      <point x="354" y="344"/>
      <point x="375" y="365"/>
      <point x="375" y="390" type="curve"/>
      <point x="375" y="413" type="line"/>
      <point x="375" y="440"/>
      <point x="354" y="460"/>
      <point x="329" y="460" type="curve"/>
      <point x="306" y="460" type="line"/>
      <point x="281" y="460"/>
      <point x="260" y="481"/>
      <point x="260" y="506" type="curve"/>
      <point x="260" y="529" type="line"/>
      <point x="260" y="554"/>
      <point x="240" y="575"/>
      <point x="215" y="575" type="curve"/>
      <point x="76" y="575" type="line"/>
      <point x="51" y="575"/>
      <point x="30" y="554"/>
      <point x="30" y="529" type="curve"/>
      <point x="30" y="506" type="line"/>
      <point x="30" y="480"/>
      <point x="51" y="460"/>
      <point x="76" y="460" type="curve"/>
      <point x="214" y="460" type="line"/>
      <point x="240" y="460"/>
      <point x="260" y="439"/>
      <point x="260" y="413" type="curve"/>
      <point x="260" y="390" type="line"/>
      <point x="260" y="365"/>
      <point x="240" y="345"/>
      <point x="214" y="345" type="curve"/>
      <point x="76" y="345" type="line"/>
      <point x="51" y="345"/>
      <point x="30" y="324"/>
      <point x="30" y="299" type="curve"/>
      <point x="30" y="161" type="line"/>
      <point x="30" y="135"/>
      <point x="51" y="114"/>
      <point x="76" y="114" type="curve"/>
      <point x="99" y="114" type="line"/>
      <point x="124" y="114"/>
      <point x="145" y="94"/>
      <point x="145" y="69" type="curve"/>
      <point x="145" y="46" type="line"/>
      <point x="145" y="21"/>
      <point x="165" y="0"/>
    </contour>
    <contour>
      <point x="192" y="230" type="curve" smooth="yes"/>
      <point x="214" y="230" type="line" smooth="yes"/>
      <point x="240" y="230"/>
      <point x="260" y="209"/>
      <point x="260" y="184" type="curve" smooth="yes"/>
      <point x="260" y="161" type="line" smooth="yes"/>
      <point x="260" y="135"/>
      <point x="240" y="115"/>
      <point x="214" y="115" type="curve" smooth="yes"/>
      <point x="192" y="115" type="line" smooth="yes"/>
      <point x="165" y="115"/>
      <point x="145" y="135"/>
      <point x="145" y="161" type="curve" smooth="yes"/>
      <point x="145" y="184" type="line" smooth="yes"/>
      <point x="145" y="209"/>
      <point x="165" y="230"/>
    </contour>
  </outline>
</glyph>
<glyph name="c" format="2">
  <advance width="405"/>
  <unicode hex="0063"/>
  <outline>
    <contour>
      <point x="30" y="524" type="curve" smooth="yes"/>
      <point x="30" y="166" type="line"/>
      <point x="30" y="137"/>
      <point x="52" y="115"/>
      <point x="81" y="115" type="curve" smooth="yes"/>
      <point x="94" y="115" type="line" smooth="yes"/>
      <point x="123" y="115"/>
      <point x="145" y="93"/>
      <point x="145" y="64" type="curve" smooth="yes"/>
      <point x="145" y="51" type="line" smooth="yes"/>
      <point x="145" y="22"/>
      <point x="167" y="0"/>
      <point x="196" y="0" type="curve" smooth="yes"/>
      <point x="208" y="0" type="line" smooth="yes"/>
      <point x="237" y="0"/>
      <point x="260" y="22"/>
      <point x="260" y="51" type="curve" smooth="yes"/>
      <point x="260" y="64" type="line" smooth="yes"/>
      <point x="260" y="93"/>
      <point x="282" y="115"/>
      <point x="311" y="115" type="curve" smooth="yes"/>
      <point x="324" y="115" type="line" smooth="yes"/>
      <point x="353" y="115"/>
      <point x="375" y="137"/>
      <point x="375" y="166" type="curve" smooth="yes"/>
      <point x="375" y="181" type="line" smooth="yes"/>
      <point x="375" y="210"/>
      <point x="353" y="230"/>
      <point x="324" y="230" type="curve" smooth="yes"/>
      <point x="311" y="230" type="line" smooth="yes"/>
      <point x="282" y="230"/>
      <point x="260" y="210"/>
      <point x="260" y="181" type="curve" smooth="yes"/>
      <point x="260" y="166" type="line" smooth="yes"/>
      <point x="260" y="137"/>
      <point x="238" y="115"/>
      <point x="209" y="115" type="curve" smooth="yes"/>
      <point x="196" y="115" type="line" smooth="yes"/>
      <point x="167" y="115"/>
      <point x="145" y="137"/>
      <point x="145" y="166" type="curve" smooth="yes"/>
      <point x="145" y="409" type="line" smooth="yes"/>
      <point x="145" y="438"/>
      <point x="167" y="460"/>
      <point x="196" y="460" type="curve" smooth="yes"/>
      <point x="209" y="460" type="line" smooth="yes"/>
      <point x="238" y="460"/>
      <point x="260" y="438"/>
      <point x="260" y="409" type="curve" smooth="yes"/>
      <point x="260" y="394" type="line" smooth="yes"/>
      <point x="260" y="365"/>
      <point x="282" y="345"/>
      <point x="311" y="345" type="curve" smooth="yes"/>
      <point x="324" y="345" type="line" smooth="yes"/>
      <point x="353" y="345"/>
      <point x="375" y="365"/>
      <point x="375" y="394" type="curve" smooth="yes"/>
      <point x="375" y="409" type="line" smooth="yes"/>
      <point x="375" y="438"/>
      <point x="353" y="460"/>
      <point x="324" y="460" type="curve" smooth="yes"/>
      <point x="311" y="460" type="line" smooth="yes"/>
      <point x="282" y="460"/>
      <point x="260" y="482"/>
      <point x="260" y="511" type="curve" smooth="yes"/>
      <point x="260" y="524" type="line" smooth="yes"/>
      <point x="260" y="553"/>
      <point x="237" y="575"/>
      <point x="208" y="575" type="curve" smooth="yes"/>
      <point x="81" y="575" type="line" smooth="yes"/>
      <point x="52" y="575"/>
      <point x="30" y="553"/>
    </contour>
  </outline>
</glyph>
<glyph name="k" format="2">
  <advance width="405"/>
  <unicode hex="006B"/>
  <outline>
    <contour>
      <point x="30" y="754" type="curve" smooth="yes"/>
      <point x="30" y="51" type="line"/>
      <point x="30" y="22"/>
      <point x="52" y="0"/>
      <point x="81" y="0" type="curve" smooth="yes"/>
      <point x="94" y="0" type="line" smooth="yes"/>
      <point x="123" y="0"/>
      <point x="145" y="22"/>
      <point x="145" y="51" type="curve" smooth="yes"/>
      <point x="145" y="298" type="line" smooth="yes"/>
      <point x="145" y="327"/>
      <point x="167" y="345"/>
      <point x="196" y="345" type="curve" smooth="yes"/>
      <point x="209" y="345" type="line" smooth="yes"/>
      <point x="238" y="345"/>
      <point x="260" y="327"/>
      <point x="260" y="298" type="curve" smooth="yes"/>
      <point x="260" y="51" type="line" smooth="yes"/>
      <point x="260" y="22"/>
      <point x="282" y="0"/>
      <point x="311" y="0" type="curve" smooth="yes"/>
      <point x="324" y="0" type="line" smooth="yes"/>
      <point x="353" y="0"/>
      <point x="375" y="22"/>
      <point x="375" y="51" type="curve" smooth="yes"/>
      <point x="375" y="298" type="line" smooth="yes"/>
      <point x="375" y="327"/>
      <point x="353" y="345"/>
      <point x="324" y="345" type="curve" smooth="yes"/>
      <point x="311" y="345" type="line" smooth="yes"/>
      <point x="282" y="345"/>
      <point x="260" y="371"/>
      <point x="260" y="400" type="curve" smooth="yes"/>
      <point x="260" y="409" type="line" smooth="yes"/>
      <point x="260" y="438"/>
      <point x="282" y="460"/>
      <point x="311" y="460" type="curve" smooth="yes"/>
      <point x="324" y="460" type="line" smooth="yes"/>
      <point x="353" y="460"/>
      <point x="375" y="482"/>
      <point x="375" y="511" type="curve" smooth="yes"/>
      <point x="375" y="524" type="line" smooth="yes"/>
      <point x="375" y="553"/>
      <point x="353" y="575"/>
      <point x="324" y="575" type="curve" smooth="yes"/>
      <point x="311" y="575" type="line" smooth="yes"/>
      <point x="282" y="575"/>
      <point x="260" y="553"/>
      <point x="260" y="524" type="curve" smooth="yes"/>
      <point x="260" y="511" type="line" smooth="yes"/>
      <point x="260" y="482"/>
      <point x="238" y="460"/>
      <point x="209" y="460" type="curve" smooth="yes"/>
      <point x="196" y="460" type="line" smooth="yes"/>
      <point x="167" y="460"/>
      <point x="145" y="482"/>
      <point x="145" y="511" type="curve" smooth="yes"/>
      <point x="145" y="754" type="line" smooth="yes"/>
      <point x="145" y="783"/>
      <point x="123" y="805"/>
      <point x="94" y="805" type="curve" smooth="yes"/>
      <point x="81" y="805" type="line" smooth="yes"/>
      <point x="52" y="805"/>
      <point x="30" y="783"/>
    </contour>
  </outline>
</glyph>
<glyph name="m" format="2">
  <advance width="635"/>
  <unicode hex="006D"/>
  <outline>
    <contour>
      <point x="30" y="51" type="curve" smooth="yes"/>
      <point x="30" y="524" type="line" smooth="yes"/>
      <point x="30" y="554"/>
      <point x="52" y="575"/>
      <point x="81" y="575" type="curve" smooth="yes"/>
      <point x="209" y="575" type="line" smooth="yes"/>
      <point x="238" y="575"/>
      <point x="259" y="553"/>
      <point x="259" y="524" type="curve" smooth="yes"/>
      <point x="259" y="511" type="line" smooth="yes"/>
      <point x="259" y="482"/>
      <point x="280" y="460"/>
      <point x="309" y="460" type="curve" smooth="yes"/>
      <point x="324" y="460" type="line" smooth="yes"/>
      <point x="353" y="460"/>
      <point x="374" y="482"/>
      <point x="374" y="511" type="curve" smooth="yes"/>
      <point x="374" y="524" type="line" smooth="yes"/>
      <point x="374" y="553"/>
      <point x="395" y="575"/>
      <point x="424" y="575" type="curve" smooth="yes"/>
      <point x="439" y="575" type="line" smooth="yes"/>
      <point x="468" y="575"/>
      <point x="489" y="553"/>
      <point x="489" y="524" type="curve" smooth="yes"/>
      <point x="489" y="511" type="line" smooth="yes"/>
      <point x="489" y="482"/>
      <point x="510" y="460"/>
      <point x="539" y="460" type="curve" smooth="yes"/>
      <point x="554" y="460" type="line" smooth="yes"/>
      <point x="583" y="460"/>
      <point x="605" y="438"/>
      <point x="605" y="409" type="curve" smooth="yes"/>
      <point x="605" y="51" type="line" smooth="yes"/>
      <point x="605" y="22"/>
      <point x="583" y="0"/>
      <point x="554" y="0" type="curve" smooth="yes"/>
      <point x="539" y="0" type="line" smooth="yes"/>
      <point x="510" y="0"/>
      <point x="489" y="22"/>
      <point x="489" y="51" type="curve" smooth="yes"/>
      <point x="489" y="409" type="line" smooth="yes"/>
      <point x="489" y="438"/>
      <point x="468" y="460"/>
      <point x="439" y="460" type="curve" smooth="yes"/>
      <point x="424" y="460" type="line" smooth="yes"/>
      <point x="395" y="460"/>
      <point x="374" y="438"/>
      <point x="374" y="409" type="curve" smooth="yes"/>
      <point x="374" y="51" type="line" smooth="yes"/>
      <point x="374" y="22"/>
      <point x="353" y="0"/>
      <point x="324" y="0" type="curve" smooth="yes"/>
      <point x="309" y="0" type="line" smooth="yes"/>
      <point x="280" y="0"/>
      <point x="259" y="22"/>
      <point x="259" y="51" type="curve" smooth="yes"/>
      <point x="259" y="409" type="line" smooth="yes"/>
      <point x="259" y="438"/>
      <point x="238" y="460"/>
      <point x="209" y="460" type="curve" smooth="yes"/>
      <point x="194" y="460" type="line" smooth="yes"/>
      <point x="165" y="460"/>
      <point x="144" y="438"/>
      <point x="144" y="409" type="curve" smooth="yes"/>
      <point x="144" y="51" type="line" smooth="yes"/>
      <point x="144" y="22"/>
      <point x="123" y="0"/>
      <point x="94" y="0" type="curve" smooth="yes"/>
      <point x="79" y="0" type="line" smooth="yes"/>
      <point x="50" y="0"/>
      <point x="30" y="22"/>
    </contour>
  </outline>
</glyph>
<glyph name="n" format="2">
  <advance width="405"/>
  <unicode hex="006E"/>
  <outline>
    <contour>
      <point x="30" y="524" type="curve" smooth="yes"/>
      <point x="30" y="51" type="line" smooth="yes"/>
      <point x="30" y="22"/>
      <point x="52" y="0"/>
      <point x="81" y="0" type="curve" smooth="yes"/>
      <point x="94" y="0" type="line" smooth="yes"/>
      <point x="123" y="0"/>
      <point x="145" y="22"/>
      <point x="145" y="51" type="curve" smooth="yes"/>
      <point x="145" y="413" type="line" smooth="yes"/>
      <point x="145" y="442"/>
      <point x="167" y="460"/>
      <point x="196" y="460" type="curve" smooth="yes"/>
      <point x="209" y="460" type="line" smooth="yes"/>
      <point x="238" y="460"/>
      <point x="260" y="442"/>
      <point x="260" y="413" type="curve" smooth="yes"/>
      <point x="260" y="51" type="line" smooth="yes"/>
      <point x="260" y="22"/>
      <point x="282" y="0"/>
      <point x="311" y="0" type="curve" smooth="yes"/>
      <point x="324" y="0" type="line" smooth="yes"/>
      <point x="353" y="0"/>
      <point x="375" y="22"/>
      <point x="375" y="51" type="curve" smooth="yes"/>
      <point x="375" y="413" type="line" smooth="yes"/>
      <point x="375" y="442"/>
      <point x="353" y="460"/>
      <point x="324" y="460" type="curve" smooth="yes"/>
      <point x="311" y="460" type="line" smooth="yes"/>
      <point x="282" y="460"/>
      <point x="260" y="486"/>
      <point x="260" y="515" type="curve" smooth="yes"/>
      <point x="260" y="524" type="line" smooth="yes"/>
      <point x="260" y="553"/>
      <point x="238" y="575"/>
      <point x="209" y="575" type="curve" smooth="yes"/>
      <point x="81" y="575" type="line" smooth="yes"/>
      <point x="52" y="575"/>
      <point x="30" y="553"/>
    </contour>
  </outline>
</glyph>
<glyph name="o" format="2">
  <advance width="405"/>
  <unicode hex="006F"/>
  <outline>
    <contour>
      <point x="81" y="0" type="curve" smooth="yes"/>
      <point x="208" y="0" type="line" smooth="yes"/>
      <point x="237" y="0"/>
      <point x="260" y="22"/>
      <point x="260" y="51" type="curve" smooth="yes"/>
      <point x="260" y="64" type="line" smooth="yes"/>
      <point x="260" y="93"/>
      <point x="282" y="115"/>
      <point x="311" y="115" type="curve" smooth="yes"/>
      <point x="324" y="115" type="line" smooth="yes"/>
      <point x="353" y="115"/>
      <point x="375" y="137"/>
      <point x="375" y="166" type="curve" smooth="yes"/>
      <point x="375" y="524" type="line" smooth="yes"/>
      <point x="375" y="553"/>
      <point x="353" y="575"/>
      <point x="324" y="575" type="curve" smooth="yes"/>
      <point x="196" y="575" type="line" smooth="yes"/>
      <point x="167" y="575"/>
      <point x="145" y="553"/>
      <point x="145" y="524" type="curve" smooth="yes"/>
      <point x="145" y="511" type="line" smooth="yes"/>
      <point x="145" y="482"/>
      <point x="123" y="460"/>
      <point x="94" y="460" type="curve" smooth="yes"/>
      <point x="81" y="460" type="line" smooth="yes"/>
      <point x="52" y="460"/>
      <point x="30" y="438"/>
      <point x="30" y="409" type="curve" smooth="yes"/>
      <point x="30" y="51" type="line" smooth="yes"/>
      <point x="30" y="22"/>
      <point x="52" y="0"/>
    </contour>
    <contour>
      <point x="145" y="166" type="curve" smooth="yes"/>
      <point x="145" y="409" type="line" smooth="yes"/>
      <point x="145" y="438"/>
      <point x="167" y="460"/>
      <point x="196" y="460" type="curve" smooth="yes"/>
      <point x="209" y="460" type="line" smooth="yes"/>
      <point x="238" y="460"/>
      <point x="260" y="438"/>
      <point x="260" y="409" type="curve" smooth="yes"/>
      <point x="260" y="166" type="line" smooth="yes"/>
      <point x="260" y="137"/>
      <point x="238" y="115"/>
      <point x="209" y="115" type="curve" smooth="yes"/>
      <point x="196" y="115" type="line" smooth="yes"/>
      <point x="167" y="115"/>
      <point x="145" y="137"/>
    </contour>
  </outline>
</glyph>
<glyph name="p" format="2">
  <advance width="405"/>
  <unicode hex="0070"/>
  <outline>
    <contour>
      <point x="311" y="115" type="curve" smooth="yes"/>
      <point x="324" y="115" type="line"/>
      <point x="353" y="115"/>
      <point x="375" y="137"/>
      <point x="375" y="166" type="curve" smooth="yes"/>
      <point x="375" y="409" type="line" smooth="yes"/>
      <point x="375" y="438"/>
      <point x="353" y="460"/>
      <point x="324" y="460" type="curve" smooth="yes"/>
      <point x="311" y="460" type="line" smooth="yes"/>
      <point x="282" y="460"/>
      <point x="260" y="482"/>
      <point x="260" y="511" type="curve" smooth="yes"/>
      <point x="260" y="524" type="line" smooth="yes"/>
      <point x="260" y="553"/>
      <point x="238" y="575"/>
      <point x="209" y="575" type="curve" smooth="yes"/>
      <point x="81" y="575" type="line" smooth="yes"/>
      <point x="52" y="575"/>
      <point x="30" y="553"/>
      <point x="30" y="524" type="curve" smooth="yes"/>
      <point x="30" y="166" type="line" smooth="yes"/>
      <point x="30" y="137"/>
      <point x="52" y="115"/>
      <point x="81" y="115" type="curve" smooth="yes"/>
      <point x="94" y="115" type="line" smooth="yes"/>
      <point x="123" y="115"/>
      <point x="145" y="93"/>
      <point x="145" y="64" type="curve" smooth="yes"/>
      <point x="145" y="51" type="line" smooth="yes"/>
      <point x="145" y="22"/>
      <point x="123" y="0"/>
      <point x="94" y="0" type="curve" smooth="yes"/>
      <point x="81" y="0" type="line" smooth="yes"/>
      <point x="52" y="0"/>
      <point x="30" y="-22"/>
      <point x="30" y="-51" type="curve" smooth="yes"/>
      <point x="30" y="-179" type="line" smooth="yes"/>
      <point x="30" y="-208"/>
      <point x="52" y="-230"/>
      <point x="81" y="-230" type="curve" smooth="yes"/>
      <point x="94" y="-230" type="line" smooth="yes"/>
      <point x="123" y="-230"/>
      <point x="145" y="-208"/>
      <point x="145" y="-179" type="curve" smooth="yes"/>
      <point x="145" y="-51" type="line" smooth="yes"/>
      <point x="145" y="-22"/>
      <point x="167" y="0"/>
      <point x="196" y="0" type="curve" smooth="yes"/>
      <point x="209" y="0" type="line" smooth="yes"/>
      <point x="238" y="0"/>
      <point x="260" y="22"/>
      <point x="260" y="51" type="curve" smooth="yes"/>
      <point x="260" y="64" type="line" smooth="yes"/>
      <point x="260" y="93"/>
      <point x="282" y="115"/>
    </contour>
    <contour>
      <point x="196" y="460" type="curve" smooth="yes"/>
      <point x="209" y="460" type="line"/>
      <point x="238" y="460"/>
      <point x="260" y="438"/>
      <point x="260" y="409" type="curve" smooth="yes"/>
      <point x="260" y="166" type="line" smooth="yes"/>
      <point x="260" y="137"/>
      <point x="238" y="115"/>
      <point x="209" y="115" type="curve" smooth="yes"/>
      <point x="196" y="115" type="line" smooth="yes"/>
      <point x="167" y="115"/>
      <point x="145" y="137"/>
      <point x="145" y="166" type="curve" smooth="yes"/>
      <point x="145" y="409" type="line" smooth="yes"/>
      <point x="145" y="438"/>
      <point x="167" y="460"/>
    </contour>
  </outline>
</glyph>
<glyph name="s" format="2">
  <advance width="405"/>
  <unicode hex="0073"/>
  <outline>
    <contour>
      <point x="210" y="115" type="curve" smooth="yes"/>
      <point x="80" y="115" type="line"/>
      <point x="51" y="115"/>
      <point x="30" y="94"/>
      <point x="30" y="64" type="curve" smooth="yes"/>
      <point x="30" y="51" type="line" smooth="yes"/>
      <point x="30" y="22"/>
      <point x="51" y="0"/>
      <point x="80" y="0" type="curve" smooth="yes"/>
      <point x="209" y="0" type="line" smooth="yes"/>
      <point x="238" y="0"/>
      <point x="260" y="22"/>
      <point x="260" y="51" type="curve" smooth="yes"/>
      <point x="260" y="64" type="line" smooth="yes"/>
      <point x="260" y="95"/>
      <point x="281" y="115"/>
      <point x="311" y="115" type="curve" smooth="yes"/>
      <point x="323" y="115" type="line" smooth="yes"/>
      <point x="353" y="115"/>
      <point x="375" y="137"/>
      <point x="375" y="166" type="curve" smooth="yes"/>
      <point x="375" y="293" type="line" smooth="yes"/>
      <point x="375" y="322"/>
      <point x="353" y="345"/>
      <point x="324" y="345" type="curve" smooth="yes"/>
      <point x="196" y="345" type="line" smooth="yes"/>
      <point x="167" y="345"/>
      <point x="145" y="367"/>
      <point x="145" y="396" type="curve" smooth="yes"/>
      <point x="145" y="409" type="line" smooth="yes"/>
      <point x="145" y="438"/>
      <point x="167" y="460"/>
      <point x="196" y="460" type="curve" smooth="yes"/>
      <point x="324" y="460" type="line" smooth="yes"/>
      <point x="353" y="460"/>
      <point x="375" y="482"/>
      <point x="375" y="511" type="curve" smooth="yes"/>
      <point x="375" y="525" type="line" smooth="yes"/>
      <point x="375" y="554"/>
      <point x="353" y="575"/>
      <point x="324" y="575" type="curve" smooth="yes"/>
      <point x="196" y="575" type="line" smooth="yes"/>
      <point x="167" y="575"/>
      <point x="145" y="553"/>
      <point x="145" y="524" type="curve" smooth="yes"/>
      <point x="145" y="511" type="line" smooth="yes"/>
      <point x="145" y="482"/>
      <point x="123" y="460"/>
      <point x="94" y="460" type="curve" smooth="yes"/>
      <point x="81" y="460" type="line" smooth="yes"/>
      <point x="52" y="460"/>
      <point x="30" y="438"/>
      <point x="30" y="409" type="curve" smooth="yes"/>
      <point x="30" y="396" type="line" smooth="yes"/>
      <point x="30" y="367"/>
      <point x="52" y="345"/>
      <point x="81" y="345" type="curve" smooth="yes"/>
      <point x="94" y="345" type="line" smooth="yes"/>
      <point x="123" y="345"/>
      <point x="145" y="324"/>
      <point x="145" y="295" type="curve" smooth="yes"/>
      <point x="145" y="281" type="line" smooth="yes"/>
      <point x="145" y="252"/>
      <point x="167" y="230"/>
      <point x="196" y="230" type="curve" smooth="yes"/>
      <point x="209" y="230" type="line" smooth="yes"/>
      <point x="238" y="230"/>
      <point x="260" y="208"/>
      <point x="260" y="179" type="curve" smooth="yes"/>
      <point x="260" y="166" type="line" smooth="yes"/>
      <point x="260" y="138"/>
      <point x="239" y="115"/>
    </contour>
  </outline>
</glyph>
<glyph name="u" format="2">
  <advance width="405"/>
  <unicode hex="0075"/>
  <outline>
    <contour>
      <point x="30" y="524" type="curve" smooth="yes"/>
      <point x="30" y="162" type="line"/>
      <point x="30" y="133"/>
      <point x="52" y="115"/>
      <point x="81" y="115" type="curve" smooth="yes"/>
      <point x="94" y="115" type="line" smooth="yes"/>
      <point x="123" y="115"/>
      <point x="145" y="89"/>
      <point x="145" y="60" type="curve" smooth="yes"/>
      <point x="145" y="47" type="line" smooth="yes"/>
      <point x="145" y="18"/>
      <point x="168" y="0"/>
      <point x="197" y="0" type="curve" smooth="yes"/>
      <point x="324" y="0" type="line" smooth="yes"/>
      <point x="353" y="0"/>
      <point x="375" y="22"/>
      <point x="375" y="51" type="curve" smooth="yes"/>
      <point x="375" y="524" type="line" smooth="yes"/>
      <point x="375" y="553"/>
      <point x="353" y="575"/>
      <point x="324" y="575" type="curve" smooth="yes"/>
      <point x="311" y="575" type="line" smooth="yes"/>
      <point x="282" y="575"/>
      <point x="260" y="553"/>
      <point x="260" y="524" type="curve" smooth="yes"/>
      <point x="260" y="162" type="line" smooth="yes"/>
      <point x="260" y="133"/>
      <point x="238" y="115"/>
      <point x="209" y="115" type="curve" smooth="yes"/>
      <point x="196" y="115" type="line" smooth="yes"/>
      <point x="167" y="115"/>
      <point x="145" y="133"/>
      <point x="145" y="162" type="curve" smooth="yes"/>
      <point x="145" y="524" type="line" smooth="yes"/>
      <point x="145" y="553"/>
      <point x="123" y="575"/>
      <point x="94" y="575" type="curve" smooth="yes"/>
      <point x="81" y="575" type="line" smooth="yes"/>
      <point x="52" y="575"/>
      <point x="30" y="553"/>
    </contour>
  </outline>
</glyph>
<glyph name="x" format="2">
  <advance width="405"/>
  <unicode hex="0078"/>
  <outline>
    <contour>
      <point x="30" y="180" type="curve" smooth="yes"/>
      <point x="30" y="52" type="line"/>
      <point x="30" y="23"/>
      <point x="52" y="1"/>
      <point x="81" y="1" type="curve" smooth="yes"/>
      <point x="94" y="1" type="line" smooth="yes"/>
      <point x="123" y="1"/>
      <point x="145" y="23"/>
      <point x="145" y="52" type="curve" smooth="yes"/>
      <point x="145" y="180" type="line" smooth="yes"/>
      <point x="145" y="209"/>
      <point x="167" y="231"/>
      <point x="196" y="231" type="curve" smooth="yes"/>
      <point x="209" y="231" type="line" smooth="yes"/>
      <point x="238" y="231"/>
      <point x="260" y="209"/>
      <point x="260" y="180" type="curve" smooth="yes"/>
      <point x="260" y="52" type="line" smooth="yes"/>
      <point x="260" y="23"/>
      <point x="282" y="1"/>
      <point x="311" y="1" type="curve" smooth="yes"/>
      <point x="324" y="1" type="line" smooth="yes"/>
      <point x="353" y="1"/>
      <point x="375" y="23"/>
      <point x="375" y="52" type="curve" smooth="yes"/>
      <point x="375" y="180" type="line" smooth="yes"/>
      <point x="375" y="209"/>
      <point x="353" y="231"/>
      <point x="324" y="231" type="curve" smooth="yes"/>
      <point x="311" y="231" type="line" smooth="yes"/>
      <point x="282" y="231"/>
      <point x="260" y="253"/>
      <point x="260" y="282" type="curve" smooth="yes"/>
      <point x="260" y="295" type="line" smooth="yes"/>
      <point x="260" y="324"/>
      <point x="282" y="346"/>
      <point x="311" y="346" type="curve" smooth="yes"/>
      <point x="324" y="346" type="line" smooth="yes"/>
      <point x="353" y="346"/>
      <point x="375" y="368"/>
      <point x="375" y="397" type="curve" smooth="yes"/>
      <point x="375" y="525" type="line" smooth="yes"/>
      <point x="375" y="554"/>
      <point x="353" y="576"/>
      <point x="324" y="576" type="curve" smooth="yes"/>
      <point x="311" y="576" type="line" smooth="yes"/>
      <point x="282" y="576"/>
      <point x="260" y="554"/>
      <point x="260" y="525" type="curve" smooth="yes"/>
      <point x="260" y="397" type="line" smooth="yes"/>
      <point x="260" y="368"/>
      <point x="238" y="346"/>
      <point x="209" y="346" type="curve" smooth="yes"/>
      <point x="196" y="346" type="line" smooth="yes"/>
      <point x="167" y="346"/>
      <point x="145" y="368"/>
      <point x="145" y="397" type="curve" smooth="yes"/>
      <point x="145" y="525" type="line" smooth="yes"/>
      <point x="145" y="554"/>
      <point x="123" y="576"/>
      <point x="94" y="576" type="curve" smooth="yes"/>
      <point x="81" y="576" type="line" smooth="yes"/>
      <point x="52" y="576"/>
      <point x="30" y="554"/>
      <point x="30" y="525" type="curve" smooth="yes"/>
      <point x="30" y="397" type="line" smooth="yes"/>
      <point x="30" y="368"/>
      <point x="52" y="346"/>
      <point x="81" y="346" type="curve" smooth="yes"/>
      <point x="94" y="346" type="line" smooth="yes"/>
      <point x="123" y="346"/>
      <point x="145" y="324"/>
      <point x="145" y="295" type="curve" smooth="yes"/>
      <point x="145" y="282" type="line" smooth="yes"/>
      <point x="145" y="253"/>
      <point x="123" y="231"/>
      <point x="94" y="231" type="curve" smooth="yes"/>
      <point x="81" y="231" type="line" smooth="yes"/>
      <point x="52" y="231"/>
      <point x="30" y="209"/>
    </contour>
  </outline>
</glyph>
<glyph name=".notdef" format="2">
  <advance width="600"/>
  <outline>
    <contour>
      <point x="176" y="200" type="curve" smooth="yes"/>
      <point x="185" y="191" type="line" smooth="yes"/>
      <point x="206" y="170"/>
      <point x="237" y="170"/>
      <point x="258" y="191" type="curve" smooth="yes"/>
      <point x="429" y="363" type="line" smooth="yes"/>
      <point x="450" y="383"/>
      <point x="450" y="414"/>
      <point x="429" y="435" type="curve" smooth="yes"/>
      <point x="420" y="444" type="line" smooth="yes"/>
      <point x="400" y="465"/>
      <point x="369" y="465"/>
      <point x="348" y="444" type="curve" smooth="yes"/>
      <point x="176" y="272" type="line" smooth="yes"/>
      <point x="156" y="252"/>
      <point x="156" y="221"/>
    </contour>
    <contour>
      <point x="417" y="194" type="curve" smooth="yes"/>
      <point x="427" y="203" type="line" smooth="yes"/>
      <point x="447" y="223"/>
      <point x="447" y="254"/>
      <point x="427" y="275" type="curve" smooth="yes"/>
      <point x="255" y="447" type="line" smooth="yes"/>
      <point x="234" y="467"/>
      <point x="203" y="467"/>
      <point x="183" y="447" type="curve" smooth="yes"/>
      <point x="173" y="438" type="line" smooth="yes"/>
      <point x="153" y="417"/>
      <point x="153" y="386"/>
      <point x="173" y="366" type="curve" smooth="yes"/>
      <point x="345" y="194" type="line" smooth="yes"/>
      <point x="366" y="173"/>
      <point x="397" y="173"/>
    </contour>
  </outline>
</glyph>
<glyph name="f_h.liga" format="2">
  <advance width="635"/>
  <outline>
    <contour>
      <point x="30" y="409" type="curve" smooth="yes"/>
      <point x="30" y="42" type="line"/>
      <point x="30" y="19"/>
      <point x="49" y="0"/>
      <point x="73" y="0" type="curve" smooth="yes"/>
      <point x="102" y="0" type="line" smooth="yes"/>
      <point x="126" y="0"/>
      <point x="145" y="19"/>
      <point x="145" y="42" type="curve" smooth="yes"/>
      <point x="145" y="419" type="line" smooth="yes"/>
      <point x="145" y="442"/>
      <point x="167" y="460"/>
      <point x="190" y="460" type="curve" smooth="yes"/>
      <point x="216" y="460" type="line" smooth="yes"/>
      <point x="245" y="460"/>
      <point x="260" y="480"/>
      <point x="260" y="504" type="curve" smooth="yes"/>
      <point x="260" y="532" type="line" smooth="yes"/>
      <point x="260" y="554"/>
      <point x="245" y="575"/>
      <point x="217" y="575" type="curve" smooth="yes"/>
      <point x="196" y="575" type="line" smooth="yes"/>
      <point x="167" y="575"/>
      <point x="145" y="597"/>
      <point x="145" y="626" type="curve" smooth="yes"/>
      <point x="145" y="639" type="line" smooth="yes"/>
      <point x="145" y="668"/>
      <point x="167" y="690"/>
      <point x="196" y="690" type="curve" smooth="yes"/>
      <point x="209" y="690" type="line" smooth="yes"/>
      <point x="238" y="690"/>
      <point x="260" y="668"/>
      <point x="260" y="639" type="curve" smooth="yes"/>
      <point x="260" y="618" type="line" smooth="yes"/>
      <point x="260" y="594"/>
      <point x="280" y="575"/>
      <point x="306" y="575" type="curve" smooth="yes"/>
      <point x="324" y="575" type="line" smooth="yes"/>
      <point x="354" y="575"/>
      <point x="375" y="553"/>
      <point x="375" y="523" type="curve" smooth="yes"/>
      <point x="375" y="511" type="line" smooth="yes"/>
      <point x="375" y="481"/>
      <point x="354" y="460"/>
      <point x="325" y="460" type="curve" smooth="yes"/>
      <point x="311" y="460" type="line" smooth="yes"/>
      <point x="282" y="460"/>
      <point x="260" y="439"/>
      <point x="260" y="410" type="curve" smooth="yes"/>
      <point x="260" y="51" type="line" smooth="yes"/>
      <point x="260" y="22"/>
      <point x="282" y="0"/>
      <point x="311" y="0" type="curve" smooth="yes"/>
      <point x="324" y="0" type="line" smooth="yes"/>
      <point x="353" y="0"/>
      <point x="375" y="22"/>
      <point x="375" y="51" type="curve" smooth="yes"/>
      <point x="375" y="413" type="line" smooth="yes"/>
      <point x="375" y="442"/>
      <point x="397" y="460"/>
      <point x="426" y="460" type="curve" smooth="yes"/>
      <point x="439" y="460" type="line" smooth="yes"/>
      <point x="468" y="460"/>
      <point x="490" y="442"/>
      <point x="490" y="413" type="curve" smooth="yes"/>
      <point x="490" y="51" type="line" smooth="yes"/>
      <point x="490" y="22"/>
      <point x="512" y="0"/>
      <point x="541" y="0" type="curve" smooth="yes"/>
      <point x="554" y="0" type="line" smooth="yes"/>
      <point x="583" y="0"/>
      <point x="605" y="22"/>
      <point x="605" y="51" type="curve" smooth="yes"/>
      <point x="605" y="524" type="line" smooth="yes"/>
      <point x="605" y="553"/>
      <point x="583" y="575"/>
      <point x="554" y="575" type="curve" smooth="yes"/>
      <point x="426" y="575" type="line" smooth="yes"/>
      <point x="400" y="575"/>
      <point x="376" y="594"/>
      <point x="375" y="619" type="curve" smooth="yes"/>
      <point x="375" y="754" type="line" smooth="yes"/>
      <point x="375" y="783"/>
      <point x="353" y="805"/>
      <point x="324" y="805" type="curve" smooth="yes"/>
      <point x="81" y="805" type="line" smooth="yes"/>
      <point x="52" y="805"/>
      <point x="30" y="783"/>
      <point x="30" y="754" type="curve" smooth="yes"/>
      <point x="30" y="626" type="line" smooth="yes"/>
      <point x="30" y="597"/>
      <point x="52" y="575"/>
      <point x="81" y="575" type="curve" smooth="yes"/>
      <point x="94" y="575" type="line" smooth="yes"/>
      <point x="123" y="575"/>
      <point x="145" y="553"/>
      <point x="145" y="524" type="curve" smooth="yes"/>
      <point x="145" y="511" type="line" smooth="yes"/>
      <point x="145" y="482"/>
      <point x="123" y="460"/>
      <point x="94" y="460" type="curve" smooth="yes"/>
      <point x="81" y="460" type="line" smooth="yes"/>
      <point x="52" y="460"/>
      <point x="30" y="438"/>
    </contour>
  </outline>
</glyph>
<glyph name="f_i" format="2">
  <advance width="520"/>
  <outline>
    <contour>
      <point x="306" y="575" type="curve" smooth="yes"/>
      <point x="439" y="575" type="line"/>
      <point x="468" y="575"/>
      <point x="490" y="597"/>
      <point x="490" y="626" type="curve" smooth="yes"/>
      <point x="490" y="639" type="line" smooth="yes"/>
      <point x="490" y="668"/>
      <point x="468" y="690"/>
      <point x="439" y="690" type="curve" smooth="yes"/>
      <point x="311" y="690" type="line" smooth="yes"/>
      <point x="282" y="690"/>
      <point x="260" y="712"/>
      <point x="260" y="741" type="curve" smooth="yes"/>
      <point x="260" y="754" type="line" smooth="yes"/>
      <point x="260" y="783"/>
      <point x="238" y="805"/>
      <point x="209" y="805" type="curve" smooth="yes"/>
      <point x="81" y="805" type="line" smooth="yes"/>
      <point x="52" y="805"/>
      <point x="30" y="783"/>
      <point x="30" y="754" type="curve" smooth="yes"/>
      <point x="30" y="626" type="line" smooth="yes"/>
      <point x="30" y="597"/>
      <point x="52" y="575"/>
      <point x="81" y="575" type="curve" smooth="yes"/>
      <point x="94" y="575" type="line" smooth="yes"/>
      <point x="123" y="575"/>
      <point x="145" y="553"/>
      <point x="145" y="524" type="curve" smooth="yes"/>
      <point x="145" y="511" type="line" smooth="yes"/>
      <point x="145" y="482"/>
      <point x="123" y="460"/>
      <point x="94" y="460" type="curve" smooth="yes"/>
      <point x="81" y="460" type="line" smooth="yes"/>
      <point x="52" y="460"/>
      <point x="30" y="438"/>
      <point x="30" y="409" type="curve" smooth="yes"/>
      <point x="30" y="42" type="line" smooth="yes"/>
      <point x="30" y="19"/>
      <point x="49" y="0"/>
      <point x="73" y="0" type="curve" smooth="yes"/>
      <point x="102" y="0" type="line" smooth="yes"/>
      <point x="126" y="0"/>
      <point x="145" y="19"/>
      <point x="145" y="42" type="curve" smooth="yes"/>
      <point x="145" y="419" type="line" smooth="yes"/>
      <point x="145" y="442"/>
      <point x="167" y="460"/>
      <point x="190" y="460" type="curve" smooth="yes"/>
      <point x="216" y="460" type="line" smooth="yes"/>
      <point x="245" y="460"/>
      <point x="260" y="480"/>
      <point x="260" y="504" type="curve" smooth="yes"/>
      <point x="260" y="532" type="line" smooth="yes"/>
      <point x="260" y="554"/>
      <point x="245" y="575"/>
      <point x="217" y="575" type="curve" smooth="yes"/>
      <point x="190" y="575" type="line" smooth="yes"/>
      <point x="169" y="575"/>
      <point x="145" y="591"/>
      <point x="145" y="619" type="curve" smooth="yes"/>
      <point x="145" y="646" type="line" smooth="yes"/>
      <point x="145" y="670"/>
      <point x="166" y="690"/>
      <point x="189" y="690" type="curve" smooth="yes"/>
      <point x="219" y="690" type="line" smooth="yes"/>
      <point x="242" y="690"/>
      <point x="260" y="668"/>
      <point x="260" y="644" type="curve" smooth="yes"/>
      <point x="260" y="618" type="line" smooth="yes"/>
      <point x="260" y="594"/>
      <point x="280" y="575"/>
    </contour>
    <contour>
      <point x="375" y="410" type="curve" smooth="yes"/>
      <point x="375" y="166" type="line" smooth="yes"/>
      <point x="375" y="137"/>
      <point x="353" y="115"/>
      <point x="324" y="115" type="curve" smooth="yes"/>
      <point x="311" y="115" type="line" smooth="yes"/>
      <point x="282" y="115"/>
      <point x="260" y="93"/>
      <point x="260" y="64" type="curve" smooth="yes"/>
      <point x="260" y="51" type="line" smooth="yes"/>
      <point x="260" y="22"/>
      <point x="282" y="0"/>
      <point x="311" y="0" type="curve" smooth="yes"/>
      <point x="324" y="0" type="line" smooth="yes"/>
      <point x="353" y="0"/>
      <point x="375" y="22"/>
      <point x="375" y="51" type="curve" smooth="yes"/>
      <point x="375" y="64" type="line" smooth="yes"/>
      <point x="375" y="93"/>
      <point x="397" y="115"/>
      <point x="426" y="115" type="curve" smooth="yes"/>
      <point x="439" y="115" type="line" smooth="yes"/>
      <point x="468" y="115"/>
      <point x="490" y="137"/>
      <point x="490" y="166" type="curve" smooth="yes"/>
      <point x="490" y="410" type="line" smooth="yes"/>
      <point x="490" y="439"/>
      <point x="468" y="460"/>
      <point x="439" y="460" type="curve" smooth="yes"/>
      <point x="426" y="460" type="line" smooth="yes"/>
      <point x="396" y="460"/>
      <point x="375" y="439"/>
    </contour>
  </outline>
</glyph>
<glyph name="f_l" format="2">
  <advance width="520"/>
  <outline>
    <contour>
      <point x="30" y="409" type="curve" smooth="yes"/>
      <point x="30" y="42" type="line"/>
      <point x="30" y="19"/>
      <point x="49" y="0"/>
      <point x="73" y="0" type="curve" smooth="yes"/>
      <point x="102" y="0" type="line" smooth="yes"/>
      <point x="126" y="0"/>
      <point x="145" y="19"/>
      <point x="145" y="42" type="curve" smooth="yes"/>
      <point x="145" y="419" type="line" smooth="yes"/>
      <point x="145" y="442"/>
      <point x="167" y="460"/>
      <point x="190" y="460" type="curve" smooth="yes"/>
      <point x="216" y="460" type="line" smooth="yes"/>
      <point x="245" y="460"/>
      <point x="260" y="480"/>
      <point x="260" y="504" type="curve" smooth="yes"/>
      <point x="260" y="532" type="line" smooth="yes"/>
      <point x="260" y="554"/>
      <point x="245" y="575"/>
      <point x="217" y="575" type="curve" smooth="yes"/>
      <point x="190" y="575" type="line" smooth="yes"/>
      <point x="169" y="575"/>
      <point x="145" y="591"/>
      <point x="145" y="619" type="curve" smooth="yes"/>
      <point x="145" y="646" type="line" smooth="yes"/>
      <point x="145" y="670"/>
      <point x="166" y="690"/>
      <point x="189" y="690" type="curve" smooth="yes"/>
      <point x="219" y="690" type="line" smooth="yes"/>
      <point x="242" y="690"/>
      <point x="260" y="668"/>
      <point x="260" y="644" type="curve" smooth="yes"/>
      <point x="260" y="618" type="line" smooth="yes"/>
      <point x="260" y="594"/>
      <point x="280" y="575"/>
      <point x="306" y="575" type="curve" smooth="yes"/>
      <point x="324" y="575" type="line" smooth="yes"/>
      <point x="353" y="575"/>
      <point x="375" y="553"/>
      <point x="375" y="524" type="curve" smooth="yes"/>
      <point x="375" y="50" type="line" smooth="yes"/>
      <point x="375" y="21"/>
      <point x="396" y="0"/>
      <point x="426" y="0" type="curve" smooth="yes"/>
      <point x="439" y="0" type="line" smooth="yes"/>
      <point x="468" y="0"/>
      <point x="490" y="21"/>
      <point x="490" y="50" type="curve" smooth="yes"/>
      <point x="490" y="524" type="line" smooth="yes"/>
      <point x="490" y="553"/>
      <point x="468" y="575"/>
      <point x="439" y="575" type="curve" smooth="yes"/>
      <point x="426" y="575" type="line" smooth="yes"/>
      <point x="397" y="575"/>
      <point x="375" y="597"/>
      <point x="375" y="626" type="curve" smooth="yes"/>
      <point x="375" y="639" type="line" smooth="yes"/>
      <point x="375" y="668"/>
      <point x="353" y="690"/>
      <point x="324" y="690" type="curve" smooth="yes"/>
      <point x="311" y="690" type="line" smooth="yes"/>
      <point x="282" y="690"/>
      <point x="260" y="712"/>
      <point x="260" y="741" type="curve" smooth="yes"/>
      <point x="260" y="754" type="line" smooth="yes"/>
      <point x="260" y="783"/>
      <point x="238" y="805"/>
      <point x="209" y="805" type="curve" smooth="yes"/>
      <point x="81" y="805" type="line" smooth="yes"/>
      <point x="52" y="805"/>
      <point x="30" y="783"/>
      <point x="30" y="754" type="curve" smooth="yes"/>
      <point x="30" y="626" type="line" smooth="yes"/>
      <point x="30" y="597"/>
      <point x="52" y="575"/>
      <point x="81" y="575" type="curve" smooth="yes"/>
      <point x="94" y="575" type="line" smooth="yes"/>
      <point x="123" y="575"/>
      <point x="145" y="553"/>
      <point x="145" y="524" type="curve" smooth="yes"/>
      <point x="145" y="511" type="line" smooth="yes"/>
      <point x="145" y="482"/>
      <point x="123" y="460"/>
      <point x="94" y="460" type="curve" smooth="yes"/>
      <point x="81" y="460" type="line" smooth="yes"/>
      <point x="52" y="460"/>
      <point x="30" y="438"/>
    </contour>
  </outline>
</glyph>
<glyph name="i_j.liga" format="2">
  <advance width="405"/>
  <outline>
    <contour>
      <point x="209" y="0" type="curve" smooth="yes"/>
      <point x="81" y="0" type="line"/>
      <point x="52" y="0"/>
      <point x="30" y="-22"/>
      <point x="30" y="-51" type="curve" smooth="yes"/>
      <point x="30" y="-64" type="line" smooth="yes"/>
      <point x="30" y="-93"/>
      <point x="52" y="-115"/>
      <point x="81" y="-115" type="curve" smooth="yes"/>
      <point x="209" y="-115" type="line" smooth="yes"/>
      <point x="238" y="-115"/>
      <point x="260" y="-94"/>
      <point x="260" y="-65" type="curve" smooth="yes"/>
      <point x="260" y="-52" type="line" smooth="yes"/>
      <point x="260" y="-23"/>
      <point x="282" y="0"/>
      <point x="311" y="0" type="curve" smooth="yes"/>
      <point x="324" y="0" type="line" smooth="yes"/>
      <point x="353" y="0"/>
      <point x="375" y="22"/>
      <point x="375" y="51" type="curve"/>
      <point x="375" y="411" type="line"/>
      <point x="375" y="440"/>
      <point x="353" y="462"/>
      <point x="324" y="462" type="curve" smooth="yes"/>
      <point x="311" y="462" type="line" smooth="yes"/>
      <point x="282" y="462"/>
      <point x="260" y="440"/>
      <point x="260" y="411" type="curve" smooth="yes"/>
      <point x="260" y="277" type="line" smooth="yes"/>
      <point x="260" y="248"/>
      <point x="238" y="230"/>
      <point x="209" y="230" type="curve" smooth="yes"/>
      <point x="196" y="230" type="line" smooth="yes"/>
      <point x="167" y="230"/>
      <point x="145" y="248"/>
      <point x="145" y="277" type="curve" smooth="yes"/>
      <point x="145" y="411" type="line" smooth="yes"/>
      <point x="145" y="440"/>
      <point x="123" y="462"/>
      <point x="94" y="462" type="curve" smooth="yes"/>
      <point x="81" y="462" type="line" smooth="yes"/>
      <point x="52" y="462"/>
      <point x="30" y="440"/>
      <point x="30" y="411" type="curve" smooth="yes"/>
      <point x="30" y="281" type="line" smooth="yes"/>
      <point x="30" y="252"/>
      <point x="52" y="230"/>
      <point x="81" y="230" type="curve" smooth="yes"/>
      <point x="94" y="230" type="line" smooth="yes"/>
      <point x="123" y="230"/>
      <point x="145" y="208"/>
      <point x="145" y="179" type="curve" smooth="yes"/>
      <point x="145" y="166" type="line" smooth="yes"/>
      <point x="145" y="137"/>
      <point x="167" y="115"/>
      <point x="196" y="115" type="curve" smooth="yes"/>
      <point x="209" y="115" type="line" smooth="yes"/>
      <point x="238" y="115"/>
      <point x="260" y="93"/>
      <point x="260" y="64" type="curve" smooth="yes"/>
      <point x="260" y="51" type="line" smooth="yes"/>
      <point x="260" y="22"/>
      <point x="238" y="0"/>
    </contour>
    <contour>
      <point x="30" y="639" type="curve" smooth="yes"/>
      <point x="30" y="626" type="line" smooth="yes"/>
      <point x="30" y="597"/>
      <point x="52" y="575"/>
      <point x="81" y="575" type="curve" smooth="yes"/>
      <point x="94" y="575" type="line" smooth="yes"/>
      <point x="123" y="575"/>
      <point x="145" y="597"/>
      <point x="145" y="626" type="curve" smooth="yes"/>
      <point x="145" y="639" type="line" smooth="yes"/>
      <point x="145" y="668"/>
      <point x="123" y="690"/>
      <point x="94" y="690" type="curve" smooth="yes"/>
      <point x="81" y="690" type="line" smooth="yes"/>
      <point x="52" y="690"/>
      <point x="30" y="668"/>
    </contour>
    <contour>
      <point x="260" y="639" type="curve" smooth="yes"/>
      <point x="260" y="626" type="line" smooth="yes"/>
      <point x="260" y="597"/>
      <point x="282" y="575"/>
      <point x="311" y="575" type="curve" smooth="yes"/>
      <point x="324" y="575" type="line" smooth="yes"/>
      <point x="353" y="575"/>
      <point x="375" y="597"/>
      <point x="375" y="626" type="curve" smooth="yes"/>
      <point x="375" y="639" type="line" smooth="yes"/>
      <point x="375" y="668"/>
      <point x="353" y="690"/>
      <point x="324" y="690" type="curve" smooth="yes"/>
      <point x="311" y="690" type="line" smooth="yes"/>
      <point x="282" y="690"/>
      <point x="260" y="668"/>
    </contour>
  </outline>
</glyph>
<glyph name="r_r.liga" format="2">
  <advance width="940"/>
  <outline>
    <contour>
      <point x="30" y="511" type="curve" smooth="yes"/>
      <point x="30" y="524" type="line" smooth="yes"/>
      <point x="30" y="553"/>
      <point x="52" y="575"/>
      <point x="81" y="575" type="curve" smooth="yes"/>
      <point x="94" y="575" type="line" smooth="yes"/>
      <point x="123" y="575"/>
      <point x="145" y="553"/>
      <point x="145" y="524" type="curve" smooth="yes"/>
      <point x="145" y="511" type="line" smooth="yes"/>
      <point x="145" y="482"/>
      <point x="167" y="460"/>
      <point x="196" y="460" type="curve" smooth="yes"/>
      <point x="209" y="460" type="line" smooth="yes"/>
      <point x="238" y="460"/>
      <point x="260" y="482"/>
      <point x="260" y="511" type="curve" smooth="yes"/>
      <point x="260" y="524" type="line" smooth="yes"/>
      <point x="260" y="553"/>
      <point x="282" y="575"/>
      <point x="311" y="575" type="curve" smooth="yes"/>
      <point x="439" y="575" type="line" smooth="yes"/>
      <point x="468" y="575"/>
      <point x="490" y="553"/>
      <point x="490" y="524" type="curve" smooth="yes"/>
      <point x="490" y="396" type="line" smooth="yes"/>
      <point x="490" y="367"/>
      <point x="468" y="345"/>
      <point x="439" y="345" type="curve" smooth="yes"/>
      <point x="426" y="345" type="line" smooth="yes"/>
      <point x="397" y="345"/>
      <point x="375" y="367"/>
      <point x="375" y="396" type="curve" smooth="yes"/>
      <point x="375" y="409" type="line" smooth="yes"/>
      <point x="375" y="438"/>
      <point x="353" y="460"/>
      <point x="324" y="460" type="curve" smooth="yes"/>
      <point x="311" y="460" type="line" smooth="yes"/>
      <point x="282" y="460"/>
      <point x="260" y="437"/>
      <point x="260" y="409" type="curve" smooth="yes"/>
      <point x="260" y="51" type="line" smooth="yes"/>
      <point x="260" y="22"/>
      <point x="238" y="0"/>
      <point x="209" y="0" type="curve" smooth="yes"/>
      <point x="196" y="0" type="line" smooth="yes"/>
      <point x="167" y="0"/>
      <point x="145" y="22"/>
      <point x="145" y="51" type="curve" smooth="yes"/>
      <point x="145" y="409" type="line" smooth="yes"/>
      <point x="145" y="437"/>
      <point x="123" y="460"/>
      <point x="94" y="460" type="curve" smooth="yes"/>
      <point x="81" y="460" type="line" smooth="yes"/>
      <point x="52" y="460"/>
      <point x="30" y="482"/>
    </contour>
    <contour>
      <point x="565" y="51" type="curve" smooth="yes"/>
      <point x="565" y="409" type="line"/>
      <point x="565" y="437"/>
      <point x="587" y="460"/>
      <point x="616" y="460" type="curve" smooth="yes"/>
      <point x="629" y="460" type="line" smooth="yes"/>
      <point x="658" y="460"/>
      <point x="680" y="482"/>
      <point x="680" y="511" type="curve" smooth="yes"/>
      <point x="680" y="524" type="line" smooth="yes"/>
      <point x="680" y="553"/>
      <point x="702" y="575"/>
      <point x="731" y="575" type="curve" smooth="yes"/>
      <point x="859" y="575" type="line" smooth="yes"/>
      <point x="888" y="575"/>
      <point x="910" y="553"/>
      <point x="910" y="524" type="curve" smooth="yes"/>
      <point x="910" y="396" type="line" smooth="yes"/>
      <point x="910" y="367"/>
      <point x="888" y="345"/>
      <point x="859" y="345" type="curve" smooth="yes"/>
      <point x="846" y="345" type="line" smooth="yes"/>
      <point x="817" y="345"/>
      <point x="795" y="367"/>
      <point x="795" y="396" type="curve" smooth="yes"/>
      <point x="795" y="409" type="line" smooth="yes"/>
      <point x="795" y="438"/>
      <point x="773" y="460"/>
      <point x="744" y="460" type="curve" smooth="yes"/>
      <point x="731" y="460" type="line" smooth="yes"/>
      <point x="702" y="460"/>
      <point x="680" y="437"/>
      <point x="680" y="409" type="curve" smooth="yes"/>
      <point x="680" y="51" type="line" smooth="yes"/>
      <point x="680" y="22"/>
      <point x="658" y="0"/>
      <point x="629" y="0" type="curve" smooth="yes"/>
      <point x="616" y="0" type="line" smooth="yes"/>
      <point x="587" y="0"/>
      <point x="565" y="22"/>
    </contour>
  </outline>
</glyph>
